<svg width="292" height="300" viewBox="0 0 292 300" xmlns="http://www.w3.org/2000/svg" xmlns:xlink="http://www.w3.org/1999/xlink"><title>Illustration2</title><defs><linearGradient x1="0%" y1="10.229%" y2="10.229%" id="g"><stop stop-color="#F22B2B" offset="0%"/><stop stop-color="#FF5E5E" offset="100%"/></linearGradient><path id="a" d="M0 20L40 0l40 20v50L40 90 0 70z"/><mask id="d" x="0" y="0" width="80" height="90" fill="#fff"><use xlink:href="#a"/></mask><path id="b" d="M0 20L40 0l40 20v50L40 90 0 70z"/><mask id="e" x="0" y="0" width="80" height="90" fill="#fff"><use xlink:href="#b"/></mask><path id="c" d="M0 20L40 0l40 20v50L40 90 0 70z"/><mask id="f" x="0" y="0" width="80" height="90" fill="#fff"><use xlink:href="#c"/></mask></defs><g fill="none" fill-rule="evenodd"><text font-family="Stem Text" font-size="13" fill="#9E9E9E"><tspan x="96.5" y="261">Rails Application</tspan> <tspan x="103.858" y="277">+ ActionCable</tspan> <tspan x="112.145" y="293">+ AnyCable</tspan></text><g transform="translate(106 150)"><use stroke="#363636" mask="url(#d)" stroke-width="4" xlink:href="#a"/><path d="M40 88.5v-48" stroke="#363636" stroke-width="2" stroke-linecap="square"/><path stroke="#363636" stroke-width="2" d="M1 20.5L40 40l39-19.5"/><path fill="#363636" d="M23 20l4-2 14 7-4 2zM37 13l4-2 14 7-4 2z"/><path d="M49.363 72.09v6.34l1.327-.66v-1.652l1.207.87 2.036-1.012-1.615-1.164s1.162-.601 1.25-2.692c0-1.879-1.164-1.543-2.507-.875l-1.698.845zm1.39 1.028l1.144-.57v1.13l-1.144.57v-1.13zm5.742-4.551c-.726.356-1.734.94-1.734 2.608v4.406l1.362-.678v-1.078l1.32-.657v1.053l1.369-.682v-4.62c0-1.448-1.322-.847-2.03-.495l-.287.143zm-.351 1.766l1.278-.636v1.737l-1.278.635v-1.736zm4.032-3.594l1.409-.7v6.063l-1.409.702v-6.065zm2.885-1.355v6.065l3.39-1.688v-1.61l-2.003.997v-4.48l-1.387.716zm7.882-3.976v1.637l-2.268 1.128v.59l.969-.481c.506-.252 1.563-.805 1.563 1.127s-.726 2.4-2.202 3.135l-1.783.887v-1.476l2.048-1.019c.616-.306.65-.568.65-.781 0-.213-.315-.156-.956.163-.641.32-1.83.527-1.83-.975 0-1.503.616-2.374 1.85-2.987 1.232-.614 1.96-.948 1.96-.948zm-20.345 8.273l11.714-5.83s-2.598-5.898-1.938-12.827c.66-6.93 4.932-12.061 7.354-13.588 2.422-1.528 3.743-.36 3.743-.36l.529-1.23s-3.479-2.562-7.883.113c-4.404 2.674-7.442 7.728-9.335 12.964-1.894 5.236-2.995 8.789-3.744 13.67-.748 4.88-.44 7.088-.44 7.088zm-2.334-6.03l2.29-.925-.396 2.988-2.158.751.264-2.814zm3.611-7.7l.617-2.4-2.026.042-.66 2.582 2.07-.224zm2.863-8.616l1.189-2.309-1.542-.467-1.233 2.277 1.586.499zm3.126-8.21l1.057 1.03 1.453-1.743-1.057-.923-1.453 1.635zm5.153-4.336l.264 1.425 1.805-.952-.176-1.307-1.893.834zm6.12-1.382l-.043.988 1.233.19.264-.613-1.453-.565zm-.264 4.264v.805l1.19-.431v-.644l-1.19.27zm-3.787 2.582l.573 1.003.836-1.221-.176-.772-1.233.99zm-1.806 2.562l.881 1.172-.528 1.39-1.277-1.082.924-1.48zm-1.76 5.331l-.573 1.68 1.497.812.352-1.947-1.277-.545zm-.617 5.19l-.088 1.923 1.85.045-.089-1.727-1.673-.24zm.528 6.392l.44 1.713 2.334-1-.836-1.677-1.938.964z" fill="#F64242"/></g><path d="M227 83l-2 1.2c-30 15-3 38-33 53l-2 1.2" stroke="#83A8C3" stroke-linecap="round" stroke-linejoin="round"/><path d="M197.718 130.271L190 138.4l10.804-2.984M90.5 45.5h111M190.7 42.5l10.8 3-10.8 3" stroke="#83A8C3" stroke-linecap="round" stroke-linejoin="round"/><text font-family="Stem Text" font-size="13" fill="#9E9E9E"><tspan x="232.169" y="111">Client</tspan> <tspan x="212.5" y="127">Applications</tspan></text><g transform="translate(212)"><use stroke="#363636" mask="url(#e)" stroke-width="4" xlink:href="#b"/><path d="M40 88.5v-48" stroke="#363636" stroke-width="2" stroke-linecap="square"/><path stroke="#363636" stroke-width="2" d="M1 20.5L40 40l39-19.5"/><path d="M60 70.603c-7.168 3.519-13-.7-13-9.404s5.832-18.649 13-22.168c7.168-3.52 13 .699 13 9.403s-5.832 18.65-13 22.169zm-8.174-2.092c.562-.806 1.35-1.623 2.214-2.517 1.31-1.358 2.943-3.048 2.943-4.101v-1.434c-.465-.245-1.252-.875-1.376-2.343-.376-.246-1-.817-1-1.905 0-.66.215-1.298.404-1.729-.116-.651-.332-2.026-.332-3.114 0-3.642 2.089-7.02 5.32-8.607.928-.456 2.055-.707 2.682-.199 1.465-.406 2.64 1.124 2.64 3.582 0 1.576-.228 2.985-.365 3.694.152.24.317.625.317 1.165 0 1.223-.508 2.263-.982 2.918-.135 1.573-.842 2.892-1.274 3.564v1.445c0 .896 1.338.841 2.632.789.968-.04 2.1.057 2.798.395-.46.615-3.458 6.18-8.447 8.63-4.99 2.45-7.612.145-8.174-.233z" fill="#F64242"/></g><text font-family="Stem Text" font-size="13" fill="#9E9E9E"><tspan x="7.5" y="112">WS Server</tspan></text><use stroke="#363636" mask="url(#f)" stroke-width="4" xlink:href="#c"/><path d="M40 88.5v-48" stroke="#363636" stroke-width="2" stroke-linecap="square"/><path stroke="#363636" stroke-width="2" d="M1 20.5L40 40l39-19.5"/><path d="M66.793 49.165v9.28l3.632-1.804V45.446l-4.035-3.15-2.595 4.603 2.998 2.266zm-14.529 18.12L56.3 70.51 74 61.714l-3.575-2.79L57.8 65.198l-2.998-2.414-2.537 4.501zm10.32-18.238l1.211-2.148-6.226-4.86L45 48.284l3.575 2.79 7.495-3.724 2.652 1.996-3.92 6.883-2.595-2.025V51.7l-3.632 1.805v4.419l6.226 4.86 1.326-2.28 2.537 1.98 5.074-2.52-5.074-4.034 1.326-2.353 5.016 3.989V51.01l-2.422-1.964z" fill="#F64242"/><path d="M65 83c1.873 1.134 2 1.2 2 1.2 30 15 3 38 33 53l2 1.2" stroke="#83A8C3" stroke-linecap="round" stroke-linejoin="round"/><path d="M72.686 91.159L65 83l10.793 3.025M91.196 135.416L102 138.4l-7.718-8.129" stroke="#83A8C3" stroke-linecap="round" stroke-linejoin="round"/><g><path fill="#F32B2B" d="M106 120l40 19.998V190l-40-20z"/><path fill="#FF5E5E" d="M186 120l-40 19.998V190l40-20z"/><path d="M172 165s0 2.5-3 4-3-1-3-1v-4l6-3v4zm6.82-19.974c-.756 2.076-2.631 3.3-4.188 2.733-1.557-.567-2.207-2.71-1.451-4.785.755-2.076 2.63-3.3 4.187-2.733 1.557.567 2.207 2.71 1.451 4.785zm-16 8c-.756 2.076-2.631 3.3-4.188 2.733-1.557-.567-2.207-2.71-1.451-4.785.755-2.076 2.63-3.3 4.187-2.733 1.557.567 2.207 2.71 1.451 4.785zM120 140.502c0-.553-.398-1.201-.888-1.446l-2.224-1.112c-.49-.245-.888.012-.888.558v9.996c0 .553.398 1.201.888 1.446l2.224 1.112c.49.245.888-.012.888-.558v-9.996zm14 7c0-.553-.398-1.201-.888-1.446l-2.224-1.112c-.49-.245-.888.012-.888.558v9.996c0 .553.398 1.201.888 1.446l2.224 1.112c.49.245.888-.012.888-.558v-9.996zm-6 17.977s0-2.5-3-4-3 1-3 1v4l6 3v-4z" fill="#000"/><path fill="url(#g)" transform="matrix(1 0 0 -1 106 124)" d="M0 0l40 20L80 0v4L39.998 24 0 4z"/><path d="M138 129c2.21 0 4-1.343 4-3s-1.79-3-4-3-4 1.343-4 3 1.79 3 4 3zm16-8c2.21 0 4-1.343 4-3s-1.79-3-4-3-4 1.343-4 3 1.79 3 4 3z" fill="#000"/></g></g></svg>