<svg width="80" height="102" viewBox="0 0 80 102" xmlns="http://www.w3.org/2000/svg"><title>Normal</title><defs><linearGradient x1="0%" y1="10.229%" y2="10.229%" id="a"><stop stop-color="#F22B2B" offset="0%"/><stop stop-color="#FF5E5E" offset="100%"/></linearGradient></defs><g fill="none" fill-rule="evenodd"><path d="M28 70.991c0-1.1.796-1.593 1.795-1.093l4.41 2.204c.991.496 1.795 1.798 1.795 2.89v24.017c0 1.1-.796 1.593-1.795 1.093l-4.41-2.204C28.804 97.402 28 96.1 28 95.008V70.992zm1.85 23.644c.575 1.58 2.001 2.51 3.186 2.079 1.184-.431 1.678-2.06 1.103-3.64-.574-1.579-2-2.51-3.185-2.078-1.184.43-1.678 2.06-1.103 3.64z" fill="#4A4A4A"/><path fill="#4A4A4A" d="M35.3 72.24l-2 1v28l2-1zM29.164 90.334l-.228 4.404 2.843 3.58-3.676-.109-1.553-4.144.381-3.622z"/><path d="M26 71.991c0-1.1.796-1.593 1.795-1.093l4.41 2.204c.991.496 1.795 1.798 1.795 2.89v24.017c0 1.1-.796 1.593-1.795 1.093l-4.41-2.204C26.804 98.402 26 97.1 26 96.008V71.992zm1.85 23.644c.575 1.58 2.001 2.51 3.186 2.079 1.184-.431 1.678-2.06 1.103-3.64-.574-1.579-2-2.51-3.185-2.078-1.184.43-1.678 2.06-1.103 3.64z" fill="#000"/><path d="M44 62.991c0-1.1.796-1.593 1.795-1.093l4.41 2.204c.991.496 1.795 1.798 1.795 2.89v24.017c0 1.1-.796 1.593-1.795 1.093l-4.41-2.204C44.804 89.402 44 88.1 44 87.008V62.992zm1.85 23.644c.575 1.58 2.001 2.51 3.186 2.079 1.184-.431 1.678-2.06 1.103-3.64-.574-1.579-2-2.51-3.185-2.078-1.184.43-1.678 2.06-1.103 3.64z" fill="#4A4A4A"/><path fill="#4A4A4A" d="M51.3 64.24l-2 1v28l2-1zM45.164 82.334l-.228 4.404 2.843 3.58-3.676-.109-1.553-4.144.381-3.622z"/><path d="M42 63.991c0-1.1.796-1.593 1.795-1.093l4.41 2.204c.991.496 1.795 1.798 1.795 2.89v24.017c0 1.1-.796 1.593-1.795 1.093l-4.41-2.204C42.804 90.402 42 89.1 42 88.008V63.992zm1.85 23.644c.575 1.58 2.001 2.51 3.186 2.079 1.184-.431 1.678-2.06 1.103-3.64-.574-1.579-2-2.51-3.185-2.078-1.184.43-1.678 2.06-1.103 3.64z" fill="#000"/><path fill="#F32B2B" d="M0 20l40 19.998V90L0 70z"/><path fill="#FF5E5E" d="M80 20L40 39.998V90l40-20z"/><path d="M66 65s0 2.5-3 4-3-1-3-1v-4l6-3v4zm6.82-19.974c-.756 2.076-2.631 3.3-4.188 2.733-1.557-.567-2.207-2.71-1.451-4.785.755-2.076 2.63-3.3 4.187-2.733 1.557.567 2.207 2.71 1.451 4.785zm-16 8c-.756 2.076-2.631 3.3-4.188 2.733-1.557-.567-2.207-2.71-1.451-4.785.755-2.076 2.63-3.3 4.187-2.733 1.557.567 2.207 2.71 1.451 4.785zM14 40.502c0-.553-.398-1.201-.888-1.446l-2.224-1.112c-.49-.245-.888.012-.888.558v9.996c0 .553.398 1.201.888 1.446l2.224 1.112c.49.245.888-.012.888-.558v-9.996zm14 7c0-.553-.398-1.201-.888-1.446l-2.224-1.112c-.49-.245-.888.012-.888.558v9.996c0 .553.398 1.201.888 1.446l2.224 1.112c.49.245.888-.012.888-.558v-9.996zM22 65.48s0-2.5-3-4-3 1-3 1v4l6 3v-4z" fill="#000"/><path fill="url(#a)" transform="matrix(1 0 0 -1 0 24)" d="M0 0l40 20L80 0v4L39.998 24 0 4z"/><path d="M32 29c2.21 0 4-1.343 4-3s-1.79-3-4-3-4 1.343-4 3 1.79 3 4 3zm16-8c2.21 0 4-1.343 4-3s-1.79-3-4-3-4 1.343-4 3 1.79 3 4 3z" fill="#000"/></g></svg>