<?xml version="1.0" encoding="UTF-8" standalone="no"?>
<svg width="80px" height="102px" viewBox="0 0 80 102" version="1.1" xmlns="http://www.w3.org/2000/svg" xmlns:xlink="http://www.w3.org/1999/xlink">
    <!-- Generator: Sketch 41 (35326) - http://www.bohemiancoding.com/sketch -->
    <title>Invert</title>
    <desc>Created with Sketch.</desc>
    <defs>
        <linearGradient x1="0%" y1="10.2291666%" x2="100%" y2="10.2291666%" id="linearGradient-1">
            <stop stop-color="#F22B2B" offset="0%"></stop>
            <stop stop-color="#FF5E5E" offset="100%"></stop>
        </linearGradient>
    </defs>
    <g id="Final" stroke="none" stroke-width="1" fill="none" fill-rule="evenodd">
        <g id="Invert">
            <g id="Group">
                <g id="Leg" transform="translate(26.000000, 69.000000)">
                    <path d="M2,1.99124431 C2,0.891510444 2.79631805,0.398159027 3.79535615,0.897678077 L8.20464385,3.10232192 C9.19619167,3.59809584 10,4.89989752 10,5.99124431 L10,30.0087557 C10,31.1084896 9.20368195,31.601841 8.20464385,31.1023219 L3.79535615,28.8976781 C2.80380833,28.4019042 2,27.1001025 2,26.0087557 L2,1.99124431 Z M3.85064042,25.6352762 C4.42537161,27.2143371 5.85134465,28.1449852 7.03564037,27.7139368 C8.21993608,27.2828884 8.71408576,25.6533728 8.13935458,24.0743119 C7.5646234,22.4952509 6.13865035,21.5646028 4.95435464,21.9956512 C3.77005892,22.4266996 3.27590924,24.0562152 3.85064042,25.6352762 Z" id="Combined-Shape" fill="#939393"></path>
                    <polygon id="Rectangle-5" fill="#939393" points="9.30000305 3.23999786 7.30000305 4.23999786 7.30000305 32.2399979 9.30000305 31.2399979"></polygon>
                    <polygon id="Path-6" fill="#939393" points="3.1640625 21.3341064 2.93615723 25.7376709 5.77941895 29.317627 2.10302734 29.2091064 0.549926758 25.0648193 0.931030273 21.442627"></polygon>
                    <path d="M0,2.99124431 C0,1.89151044 0.796318054,1.39815903 1.79535615,1.89767808 L6.20464385,4.10232192 C7.19619167,4.59809584 8,5.89989752 8,6.99124431 L8,31.0087557 C8,32.1084896 7.20368195,32.601841 6.20464385,32.1023219 L1.79535615,29.8976781 C0.80380833,29.4019042 0,28.1001025 0,27.0087557 L0,2.99124431 Z M1.85064042,26.6352762 C2.42537161,28.2143371 3.85134465,29.1449852 5.03564037,28.7139368 C6.21993608,28.2828884 6.71408576,26.6533728 6.13935458,25.0743119 C5.5646234,23.4952509 4.13865035,22.5646028 2.95435464,22.9956512 C1.77005892,23.4266996 1.27590924,25.0562152 1.85064042,26.6352762 Z" id="Combined-Shape" fill="#FFFFFF"></path>
                </g>
                <g id="Leg" transform="translate(42.000000, 61.000000)">
                    <path d="M2,1.99124431 C2,0.891510444 2.79631805,0.398159027 3.79535615,0.897678077 L8.20464385,3.10232192 C9.19619167,3.59809584 10,4.89989752 10,5.99124431 L10,30.0087557 C10,31.1084896 9.20368195,31.601841 8.20464385,31.1023219 L3.79535615,28.8976781 C2.80380833,28.4019042 2,27.1001025 2,26.0087557 L2,1.99124431 Z M3.85064042,25.6352762 C4.42537161,27.2143371 5.85134465,28.1449852 7.03564037,27.7139368 C8.21993608,27.2828884 8.71408576,25.6533728 8.13935458,24.0743119 C7.5646234,22.4952509 6.13865035,21.5646028 4.95435464,21.9956512 C3.77005892,22.4266996 3.27590924,24.0562152 3.85064042,25.6352762 Z" id="Combined-Shape" fill="#939393"></path>
                    <polygon id="Rectangle-5" fill="#939393" points="9.30000305 3.23999786 7.30000305 4.23999786 7.30000305 32.2399979 9.30000305 31.2399979"></polygon>
                    <polygon id="Path-6" fill="#939393" points="3.1640625 21.3341064 2.93615723 25.7376709 5.77941895 29.317627 2.10302734 29.2091064 0.549926758 25.0648193 0.931030273 21.442627"></polygon>
                    <path d="M0,2.99124431 C0,1.89151044 0.796318054,1.39815903 1.79535615,1.89767808 L6.20464385,4.10232192 C7.19619167,4.59809584 8,5.89989752 8,6.99124431 L8,31.0087557 C8,32.1084896 7.20368195,32.601841 6.20464385,32.1023219 L1.79535615,29.8976781 C0.80380833,29.4019042 0,28.1001025 0,27.0087557 L0,2.99124431 Z M1.85064042,26.6352762 C2.42537161,28.2143371 3.85134465,29.1449852 5.03564037,28.7139368 C6.21993608,28.2828884 6.71408576,26.6533728 6.13935458,25.0743119 C5.5646234,23.4952509 4.13865035,22.5646028 2.95435464,22.9956512 C1.77005892,23.4266996 1.27590924,25.0562152 1.85064042,26.6352762 Z" id="Combined-Shape" fill="#FFFFFF"></path>
                </g>
                <polygon id="Combined-Shape" fill="#F32B2B" points="0 20 40 39.9980297 40 89.9999964 0 70"></polygon>
                <polygon id="Combined-Shape" fill="#FF5E5E" transform="translate(60.000000, 54.999998) scale(-1, 1) translate(-60.000000, -54.999998) " points="40 20 80 39.9980297 80 89.9999964 40 70"></polygon>
                <path d="M58,65 C58,65 58,67.5 61,69 C64,70.5 64,68 64,68 L64,64 L58,61 L58,65 Z M51.1809221,45.0260604 C51.9364922,47.101972 53.8111469,48.325448 55.3680806,47.7587705 C56.9250143,47.192093 57.5746479,45.0498512 56.8190779,42.9739396 C56.0635078,40.898028 54.1888531,39.674552 52.6319194,40.2412295 C51.0749857,40.807907 50.4253521,42.9501488 51.1809221,45.0260604 Z M67.1809221,53.0260604 C67.9364922,55.101972 69.8111469,56.325448 71.3680806,55.7587705 C72.9250143,55.192093 73.5746479,53.0498512 72.8190779,50.9739396 C72.0635078,48.898028 70.1888531,47.674552 68.6319194,48.2412295 C67.0749857,48.807907 66.4253521,50.9501488 67.1809221,53.0260604 Z" id="Combined-Shape" fill="#000000" transform="translate(62.000000, 54.791006) scale(-1, 1) translate(-62.000000, -54.791006) "></path>
                <path d="M24,40.5024733 C24,39.9488226 24.398159,39.3009205 24.8877296,39.0561352 L27.1122704,37.9438648 C27.6025499,37.6987251 28,37.955761 28,38.5024733 L28,48.4975267 C28,49.0511774 27.601841,49.6990795 27.1122704,49.9438648 L24.8877296,51.0561352 C24.3974501,51.3012749 24,51.044239 24,50.4975267 L24,40.5024733 Z M10,47.5024733 C10,46.9488226 10.398159,46.3009205 10.8877296,46.0561352 L13.1122704,44.9438648 C13.6025499,44.6987251 14,44.955761 14,45.5024733 L14,55.4975267 C14,56.0511774 13.601841,56.6990795 13.1122704,56.9438648 L10.8877296,58.0561352 C10.3974501,58.3012749 10,58.044239 10,57.4975267 L10,47.5024733 Z M16,65.4792899 C16,65.4792899 16,62.9792899 19,61.4792899 C22,59.9792899 22,62.4792899 22,62.4792899 L22,66.4792899 L16,69.4792899 L16,65.4792899 Z" id="Combined-Shape" fill="#000000" transform="translate(19.000000, 53.665024) scale(-1, 1) translate(-19.000000, -53.665024) "></path>
                <polygon id="Rectangle-2" fill="url(#linearGradient-1)" transform="translate(40.000000, 12.000000) scale(1, -1) translate(-40.000000, -12.000000) " points="0 0 40 19.9994016 80 0 80 4 39.9981059 24 0 4"></polygon>
                <path d="M32,29 C34.209139,29 36,27.6568542 36,26 C36,24.3431458 34.209139,23 32,23 C29.790861,23 28,24.3431458 28,26 C28,27.6568542 29.790861,29 32,29 Z M48,21 C50.209139,21 52,19.6568542 52,18 C52,16.3431458 50.209139,15 48,15 C45.790861,15 44,16.3431458 44,18 C44,19.6568542 45.790861,21 48,21 Z" id="Combined-Shape" fill="#FFFFFF"></path>
            </g>
        </g>
    </g>
</svg>