<svg width="64" height="27" viewBox="0 0 64 27" fill="none" xmlns="http://www.w3.org/2000/svg">
<path d="M45.5 0.5H18.5C11.3203 0.5 5.5 6.3203 5.5 13.5C5.5 20.6797 11.3203 26.5 18.5 26.5H45.5C52.6797 26.5 58.5 20.6797 58.5 13.5C58.5 6.3203 52.6797 0.5 45.5 0.5Z" fill="#FF5E5E" stroke="#FF5E5E"/>
<path d="M24.4499 19.0002V9.2002H22.3359V15.0242L17.5759 9.2002H15.9099V19.0002H18.0239V13.1902L22.7699 19.0002H24.4499Z" fill="white"/>
<path d="M26.2732 19.0002H33.8892V16.9702H28.4432V15.0102H33.4132V13.0502H28.4432V11.2302H33.7632V9.2002H26.2732V19.0002Z" fill="white"/>
<path d="M48.049 9.2002H45.893L44.185 15.0662L42.183 9.2002H40.447L38.487 15.1082L36.695 9.2002H34.455L37.507 19.0002H39.271L41.301 13.0642L43.387 19.0002H45.151L48.049 9.2002Z" fill="white"/>
</svg>
